<svg xmlns="http://www.w3.org/2000/svg" viewBox="0 0 2059 314" width="2059" height="314"><title>TAFE Tabler</title><g transform="translate(46.00,58.00)"><rect x="0.00" y="0.00" width="37.50" height="37.50" rx="7.12" ry="7.12" fill="#3D5AF1"/><rect x="0.00" y="43.12" width="37.50" height="37.50" rx="7.12" ry="7.12" fill="#3D5AF1" transform="translate(-2.25 1.50) rotate(3 18.75 61.88)"/><rect x="43.12" y="43.12" width="37.50" height="37.50" rx="7.12" ry="7.12" fill="#3D5AF1"/><rect x="43.12" y="0.00" width="37.50" height="37.50" rx="7.12" ry="7.12" fill="#13C2A8" transform="translate(-1.12 -1.50) rotate(-3 61.88 18.75)"/><rect x="86.25" y="0.00" width="37.50" height="37.50" rx="7.12" ry="7.12" fill="#13C2A8"/><rect x="129.38" y="0.00" width="37.50" height="37.50" rx="7.12" ry="7.12" fill="#13C2A8"/><rect x="86.25" y="43.12" width="37.50" height="37.50" rx="7.12" ry="7.12" fill="#13C2A8"/><rect x="129.38" y="43.12" width="37.50" height="37.50" rx="7.12" ry="7.12" fill="#13C2A8"/><rect x="172.50" y="0.00" width="37.50" height="37.50" rx="7.12" ry="7.12" fill="#FFB020"/><rect x="215.62" y="0.00" width="37.50" height="37.50" rx="7.12" ry="7.12" fill="#FFB020" transform="translate(1.88 -2.62) rotate(-4 234.38 18.75)"/><rect x="172.50" y="43.12" width="37.50" height="37.50" rx="7.12" ry="7.12" fill="#FFB020" transform="translate(1.12 2.25) rotate(-3 191.25 61.88)"/><rect x="215.62" y="43.12" width="37.50" height="37.50" rx="7.12" ry="7.12" fill="#FFB020"/><rect x="86.25" y="86.25" width="37.50" height="37.50" rx="7.12" ry="7.12" fill="#8B5CF6"/><rect x="129.38" y="86.25" width="37.50" height="37.50" rx="7.12" ry="7.12" fill="#8B5CF6" transform="translate(1.88 -1.12) rotate(-3 148.12 105.00)"/><rect x="86.25" y="129.38" width="37.50" height="37.50" rx="7.12" ry="7.12" fill="#8B5CF6"/><rect x="129.38" y="129.38" width="37.50" height="37.50" rx="7.12" ry="7.12" fill="#8B5CF6"/><rect x="86.25" y="172.50" width="37.50" height="37.50" rx="7.12" ry="7.12" fill="#FF5C6C" transform="translate(-1.88 1.50) rotate(4 105.00 191.25)"/><rect x="129.38" y="172.50" width="37.50" height="37.50" rx="7.12" ry="7.12" fill="#FF5C6C"/></g><path transform="translate(315.12,268.00) scale(0.30000,-0.30000)" d="M26.125 0Q17.3125 0 10.90625 6.40625Q4.5 12.8125 4.5 21.625Q4.5 25.8125 5.6875 29.375L234.3125 669.4375Q237.5 680.25 247.65625 690.125Q257.8125 700 276.3125 700H459Q477.5 700 487.65625 690.125Q497.8125 680.25 501 669.4375L729.625 29.375Q730.8125 25.8125 730.8125 21.625Q730.8125 12.8125 724.40625 6.40625Q718 0 709.1875 0H555.125Q537.8125 0 529.96875 7.9375Q522.125 15.875 519.3125 23.125L488.1875 106.75H247.125L216 23.125Q213.375 15.875 205.84375 7.9375Q198.3125 0 180.1875 0ZM293.0625 276.4375H442.25L367.25 501.4375Z" fill="#1E2435"/><path transform="translate(537.62,268.00) scale(0.30000,-0.30000)" d="M88.375 0Q77.5625 0 69.9375 7.625Q62.3125 15.25 62.3125 26.0625V673.75Q62.3125 684.75 69.9375 692.375Q77.5625 700 88.375 700H570.25Q581.25 700 588.875 692.375Q596.5 684.75 596.5 673.75V547.4375Q596.5 536.625 588.875 529.0Q581.25 521.375 570.25 521.375H273.1875V410.8125H550.25Q561.25 410.8125 568.875 403.1875Q576.5 395.5625 576.5 384.5625V259.0625Q576.5 248.25 568.875 240.625Q561.25 233 550.25 233H273.1875V26.0625Q273.1875 15.25 265.5625 7.625Q257.9375 0 246.9375 0Z" fill="#1E2435"/><path transform="translate(729.23,268.00) scale(0.30000,-0.30000)" d="M88.375 0Q77.5625 0 69.9375 7.625Q62.3125 15.25 62.3125 26.0625V673.75Q62.3125 684.75 69.9375 692.375Q77.5625 700 88.375 700H578.3125Q589.3125 700 596.9375 692.375Q604.5625 684.75 604.5625 673.75V556.375Q604.5625 545.5625 596.9375 537.9375Q589.3125 530.3125 578.3125 530.3125H269.125V431.3125H556.3125Q567.3125 431.3125 574.9375 423.6875Q582.5625 416.0625 582.5625 405.0625V296.625Q582.5625 285.8125 574.9375 278.1875Q567.3125 270.5625 556.3125 270.5625H269.125V169.6875H586.3125Q597.3125 169.6875 604.9375 162.0625Q612.5625 154.4375 612.5625 143.4375V26.0625Q612.5625 15.25 604.9375 7.625Q597.3125 0 586.3125 0Z" fill="#1E2435"/><path transform="translate(1010.12,268.00) scale(0.30000,-0.30000)" d="M243 0Q232.1875 0 224.5625 7.625Q216.9375 15.25 216.9375 26.0625V514.0625H44.9375Q34.125 514.0625 26.5 521.6875Q18.875 529.3125 18.875 540.125V673.75Q18.875 684.75 26.5 692.375Q34.125 700 44.9375 700H606.9375Q617.9375 700 625.5625 692.375Q633.1875 684.75 633.1875 673.75V540.125Q633.1875 529.3125 625.5625 521.6875Q617.9375 514.0625 606.9375 514.0625H435.125V26.0625Q435.125 15.25 427.5 7.625Q419.875 0 408.875 0Z" fill="#1E2435"/><path transform="translate(1207.72,268.00) scale(0.30000,-0.30000)" d="M212.875 -10Q157.5625 -10 114.21875 10.8125Q70.875 31.625 46.28125 67.15625Q21.6875 102.6875 21.6875 147.125Q21.6875 219.1875 80.34375 260.59375Q139 302 236.75 318.0625L352.5 336V343.375Q352.5 374.4375 342.75 389.90625Q333 405.375 302.625 405.375Q281.5 405.375 268.59375 397.0625Q255.6875 388.75 245.3125 374.4375Q235.4375 362.6875 219 362.6875H77.875Q67.5 362.6875 61.28125 368.78125Q55.0625 374.875 55.875 384.6875Q56.6875 402.75 70.84375 427.40625Q85 452.0625 114.71875 475.40625Q144.4375 498.75 191.21875 514.375Q238 530 304.25 530Q370.5625 530 418.8125 515.21875Q467.0625 500.4375 497.90625 473.3125Q528.75 446.1875 543.84375 407.46875Q558.9375 368.75 558.9375 321.6875V26.0625Q558.9375 15.25 551.3125 7.625Q543.6875 0 532.875 0H387.5Q376.6875 0 369.0625 7.625Q361.4375 15.25 361.4375 26.0625V57.625Q347.8125 38 326.21875 22.84375Q304.625 7.6875 276.21875 -1.15625Q247.8125 -10 212.875 -10ZM270.8125 121.125Q295.6875 121.125 314.59375 131.375Q333.5 141.625 344.21875 163.625Q354.9375 185.625 354.9375 218.5625V225.75L282.8125 211.8125Q246.3125 204.875 231.125 191.6875Q215.9375 178.5 215.9375 161.875Q215.9375 150 223.15625 140.78125Q230.375 131.5625 242.8125 126.34375Q255.25 121.125 270.8125 121.125Z" fill="#1E2435"/><path transform="translate(1391.52,268.00) scale(0.30000,-0.30000)" d="M397.125 -10Q343.25 -10 306.40625 7.625Q269.5625 25.25 245.375 53.5625V26.0625Q245.375 15.25 237.75 7.625Q230.125 0 219.3125 0H78Q67.1875 0 59.5625 7.625Q51.9375 15.25 51.9375 26.0625V683.9375Q51.9375 694.75 59.5625 702.375Q67.1875 710 78 710H231.5Q242.3125 710 249.9375 702.375Q257.5625 694.75 257.5625 683.9375V477Q281.75 501.0625 316.5625 515.53125Q351.375 530 397.125 530Q443.9375 530 481.90625 514.6875Q519.875 499.375 547.71875 470.0625Q575.5625 440.75 591.625 397.34375Q607.6875 353.9375 609.5 297.75Q610.5 277.0625 610.5 260.8125Q610.5 244.5625 609.5 223.0625Q606.875 163.625 590.8125 119.8125Q574.75 76 546.90625 47.09375Q519.0625 18.1875 481.5 4.09375Q443.9375 -10 397.125 -10ZM328.5625 146.3125Q355.0625 146.3125 369.5625 156.875Q384.0625 167.4375 390.53125 185.875Q397 204.3125 399 227.9375Q401.625 260 399 292.0625Q397 315.6875 390.53125 334.125Q384.0625 352.5625 369.5625 363.125Q355.0625 373.6875 328.5625 373.6875Q304.4375 373.6875 289.25 363.9375Q274.0625 354.1875 266.3125 337.9375Q258.5625 321.6875 257.5625 301.1875Q256.5625 280.5 256.5625 264.21875Q256.5625 247.9375 257.5625 226.4375Q258.75 204.125 265.5 185.96875Q272.25 167.8125 287.75 157.0625Q303.25 146.3125 328.5625 146.3125Z" fill="#1E2435"/><path transform="translate(1587.32,268.00) scale(0.30000,-0.30000)" d="M78 0Q67.1875 0 59.5625 7.625Q51.9375 15.25 51.9375 26.0625V683.9375Q51.9375 694.75 59.5625 702.375Q67.1875 710 78 710H226.625Q237.4375 710 245.0625 702.375Q252.6875 694.75 252.6875 683.9375V26.0625Q252.6875 15.25 245.0625 7.625Q237.4375 0 226.625 0Z" fill="#1E2435"/><path transform="translate(1680.82,268.00) scale(0.30000,-0.30000)" d="M306.5 -10Q181.875 -10 108.21875 54.3125Q34.5625 118.625 33.0625 251.6875Q32.875 256.125 32.875 262.4375Q32.875 268.75 33.0625 272.375Q35.625 355 69.53125 412.6875Q103.4375 470.375 163.9375 500.1875Q224.4375 530 305.6875 530Q398.4375 530 458.8125 493.71875Q519.1875 457.4375 548.9375 396.59375Q578.6875 335.75 578.6875 260.625V233.4375Q578.6875 222.625 570.96875 215.0Q563.25 207.375 552.4375 207.375H243.5625Q243.5625 206.5625 243.5625 205.0Q243.5625 203.4375 243.5625 201.4375Q243.9375 176.75 250.34375 158.1875Q256.75 139.625 270.625 129.15625Q284.5 118.6875 304.875 118.6875Q317.8125 118.6875 326.8125 122.75Q335.8125 126.8125 342.65625 133.375Q349.5 139.9375 354.5 145.5Q363.5 155.25 369.3125 157.75Q375.125 160.25 386.9375 160.25H543.5Q553.3125 160.25 559.8125 154.34375Q566.3125 148.4375 565.3125 138.625Q564.3125 120.5625 548.1875 95.1875Q532.0625 69.8125 500.28125 45.75Q468.5 21.6875 419.9375 5.84375Q371.375 -10 306.5 -10ZM243.5625 319.4375H368.1875V321Q368.1875 348.25 360.96875 367.125Q353.75 386 339.6875 395.6875Q325.625 405.375 305.6875 405.375Q285.75 405.375 271.78125 395.6875Q257.8125 386 250.6875 367.125Q243.5625 348.25 243.5625 321Z" fill="#1E2435"/><path transform="translate(1865.52,268.00) scale(0.30000,-0.30000)" d="M77.8125 0Q67 0 59.375 7.625Q51.75 15.25 51.75 26.0625V493.75Q51.75 504.5625 59.375 512.28125Q67 520 77.8125 520H223Q233.8125 520 241.53125 512.28125Q249.25 504.5625 249.25 493.75V456.6875Q278.625 486 317.09375 503.0Q355.5625 520 401.5 520H447.4375Q458.25 520 465.875 512.375Q473.5 504.75 473.5 493.9375V364.5625Q473.5 353.75 465.875 346.125Q458.25 338.5 447.4375 338.5H334.5625Q298.9375 338.5 280.1875 319.75Q261.4375 301 261.4375 265.375V26.0625Q261.4375 15.25 253.71875 7.625Q246 0 235.1875 0Z" fill="#1E2435"/></svg>